<mxfile host="app.diagrams.net" modified="2023-11-08T07:49:57.941Z" agent="Mozilla/5.0 (Windows NT 10.0; Win64; x64) AppleWebKit/537.36 (KHTML, like Gecko) Chrome/119.0.0.0 Safari/537.36" etag="rKxUYICf69okuFMpjE5F" version="22.0.8" type="device">
  <diagram name="PÃ¡gina-1" id="wY6uZcT8hMfS2q6cgCWG">
    <mxGraphModel dx="1687" dy="944" grid="1" gridSize="10" guides="1" tooltips="1" connect="1" arrows="1" fold="1" page="1" pageScale="1" pageWidth="827" pageHeight="1169" math="0" shadow="0">
      <root>
        <mxCell id="0" />
        <mxCell id="1" parent="0" />
        <mxCell id="btgjlnelvWsudcuo9mZK-2" style="edgeStyle=orthogonalEdgeStyle;rounded=0;orthogonalLoop=1;jettySize=auto;html=1;entryX=0.5;entryY=0;entryDx=0;entryDy=0;" edge="1" parent="1" source="btgjlnelvWsudcuo9mZK-3">
          <mxGeometry relative="1" as="geometry">
            <mxPoint x="291" y="180" as="targetPoint" />
          </mxGeometry>
        </mxCell>
        <mxCell id="btgjlnelvWsudcuo9mZK-3" value="void ordenacion()" style="ellipse;whiteSpace=wrap;html=1;" vertex="1" parent="1">
          <mxGeometry x="237.75" y="80" width="107.5" height="70" as="geometry" />
        </mxCell>
        <mxCell id="btgjlnelvWsudcuo9mZK-54" value="" style="edgeStyle=orthogonalEdgeStyle;rounded=0;orthogonalLoop=1;jettySize=auto;html=1;" edge="1" parent="1" source="btgjlnelvWsudcuo9mZK-7" target="btgjlnelvWsudcuo9mZK-53">
          <mxGeometry relative="1" as="geometry" />
        </mxCell>
        <mxCell id="btgjlnelvWsudcuo9mZK-7" value="char *palabras[NUM_PALABRAS] = {&quot;manzana&quot;, &quot;banana&quot;, &quot;cereza&quot;, &quot;uva&quot;, &quot;naranja&quot;};" style="rounded=0;whiteSpace=wrap;html=1;" vertex="1" parent="1">
          <mxGeometry x="58.25" y="180" width="466.5" height="50" as="geometry" />
        </mxCell>
        <mxCell id="btgjlnelvWsudcuo9mZK-56" value="" style="edgeStyle=orthogonalEdgeStyle;rounded=0;orthogonalLoop=1;jettySize=auto;html=1;" edge="1" parent="1" source="btgjlnelvWsudcuo9mZK-53" target="btgjlnelvWsudcuo9mZK-55">
          <mxGeometry relative="1" as="geometry" />
        </mxCell>
        <mxCell id="btgjlnelvWsudcuo9mZK-53" value="char *temp;" style="rounded=0;whiteSpace=wrap;html=1;" vertex="1" parent="1">
          <mxGeometry x="233.63" y="260" width="115.75" height="40" as="geometry" />
        </mxCell>
        <mxCell id="btgjlnelvWsudcuo9mZK-58" value="" style="edgeStyle=orthogonalEdgeStyle;rounded=0;orthogonalLoop=1;jettySize=auto;html=1;" edge="1" parent="1" source="btgjlnelvWsudcuo9mZK-55" target="btgjlnelvWsudcuo9mZK-57">
          <mxGeometry relative="1" as="geometry" />
        </mxCell>
        <mxCell id="btgjlnelvWsudcuo9mZK-55" value="int i, j;" style="rounded=0;whiteSpace=wrap;html=1;" vertex="1" parent="1">
          <mxGeometry x="253.25" y="330" width="76.5" height="40" as="geometry" />
        </mxCell>
        <mxCell id="btgjlnelvWsudcuo9mZK-60" value="" style="edgeStyle=orthogonalEdgeStyle;rounded=0;orthogonalLoop=1;jettySize=auto;html=1;" edge="1" parent="1" source="btgjlnelvWsudcuo9mZK-57">
          <mxGeometry relative="1" as="geometry">
            <mxPoint x="291.51428571428573" y="520" as="targetPoint" />
          </mxGeometry>
        </mxCell>
        <mxCell id="btgjlnelvWsudcuo9mZK-75" style="edgeStyle=orthogonalEdgeStyle;rounded=0;orthogonalLoop=1;jettySize=auto;html=1;entryX=0.5;entryY=0;entryDx=0;entryDy=0;" edge="1" parent="1" source="btgjlnelvWsudcuo9mZK-57">
          <mxGeometry relative="1" as="geometry">
            <mxPoint x="291.5050000000001" y="920" as="targetPoint" />
            <Array as="points">
              <mxPoint x="490" y="450" />
              <mxPoint x="490" y="890" />
              <mxPoint x="292" y="890" />
            </Array>
          </mxGeometry>
        </mxCell>
        <mxCell id="btgjlnelvWsudcuo9mZK-57" value="Desde i = 0&lt;br&gt;Mientras i &amp;lt; NUM_PALABRAS - 1&lt;br&gt;Incremento i++" style="shape=hexagon;perimeter=hexagonPerimeter2;whiteSpace=wrap;html=1;fixedSize=1;" vertex="1" parent="1">
          <mxGeometry x="195.13" y="410" width="192.75" height="80" as="geometry" />
        </mxCell>
        <mxCell id="btgjlnelvWsudcuo9mZK-78" style="edgeStyle=orthogonalEdgeStyle;rounded=0;orthogonalLoop=1;jettySize=auto;html=1;entryX=0.5;entryY=0;entryDx=0;entryDy=0;" edge="1" parent="1" source="btgjlnelvWsudcuo9mZK-76" target="btgjlnelvWsudcuo9mZK-77">
          <mxGeometry relative="1" as="geometry" />
        </mxCell>
        <mxCell id="btgjlnelvWsudcuo9mZK-76" value="Desde j = i + 1&lt;br&gt;Mientras j &amp;lt; NUM_PALABRAS&amp;nbsp;&lt;br&gt;Incremento j++" style="shape=hexagon;perimeter=hexagonPerimeter2;whiteSpace=wrap;html=1;fixedSize=1;" vertex="1" parent="1">
          <mxGeometry x="195.13" y="520" width="192.75" height="80" as="geometry" />
        </mxCell>
        <mxCell id="btgjlnelvWsudcuo9mZK-85" style="edgeStyle=orthogonalEdgeStyle;rounded=0;orthogonalLoop=1;jettySize=auto;html=1;entryX=0.5;entryY=0;entryDx=0;entryDy=0;" edge="1" parent="1" source="btgjlnelvWsudcuo9mZK-77" target="btgjlnelvWsudcuo9mZK-81">
          <mxGeometry relative="1" as="geometry">
            <Array as="points">
              <mxPoint x="210" y="670" />
              <mxPoint x="210" y="800" />
              <mxPoint x="292" y="800" />
              <mxPoint x="292" y="820" />
            </Array>
          </mxGeometry>
        </mxCell>
        <mxCell id="btgjlnelvWsudcuo9mZK-86" style="edgeStyle=orthogonalEdgeStyle;rounded=0;orthogonalLoop=1;jettySize=auto;html=1;entryX=0.5;entryY=0;entryDx=0;entryDy=0;" edge="1" parent="1" source="btgjlnelvWsudcuo9mZK-77" target="btgjlnelvWsudcuo9mZK-79">
          <mxGeometry relative="1" as="geometry">
            <Array as="points">
              <mxPoint x="390" y="670" />
            </Array>
          </mxGeometry>
        </mxCell>
        <mxCell id="btgjlnelvWsudcuo9mZK-77" value="strcmp(&lt;br&gt;palabras[i],&lt;br&gt;palabras[j])&lt;br&gt;&amp;gt; 0" style="rhombus;whiteSpace=wrap;html=1;" vertex="1" parent="1">
          <mxGeometry x="224.69" y="630" width="133.62" height="80" as="geometry" />
        </mxCell>
        <mxCell id="btgjlnelvWsudcuo9mZK-84" style="edgeStyle=orthogonalEdgeStyle;rounded=0;orthogonalLoop=1;jettySize=auto;html=1;entryX=0.5;entryY=0;entryDx=0;entryDy=0;" edge="1" parent="1" source="btgjlnelvWsudcuo9mZK-79" target="btgjlnelvWsudcuo9mZK-81">
          <mxGeometry relative="1" as="geometry">
            <Array as="points">
              <mxPoint x="390" y="800" />
              <mxPoint x="292" y="800" />
            </Array>
          </mxGeometry>
        </mxCell>
        <mxCell id="btgjlnelvWsudcuo9mZK-79" value="&lt;div&gt;temp = palabras[i];&lt;/div&gt;&lt;div&gt;palabras[i] = palabras[j];&lt;/div&gt;&lt;div&gt;palabras[j] = temp;&lt;/div&gt;" style="rounded=0;whiteSpace=wrap;html=1;" vertex="1" parent="1">
          <mxGeometry x="310" y="720" width="160.25" height="60" as="geometry" />
        </mxCell>
        <mxCell id="btgjlnelvWsudcuo9mZK-87" style="edgeStyle=orthogonalEdgeStyle;rounded=0;orthogonalLoop=1;jettySize=auto;html=1;entryX=0;entryY=0.5;entryDx=0;entryDy=0;" edge="1" parent="1" source="btgjlnelvWsudcuo9mZK-81" target="btgjlnelvWsudcuo9mZK-76">
          <mxGeometry relative="1" as="geometry">
            <mxPoint x="210.00000000000006" y="810" as="targetPoint" />
            <Array as="points">
              <mxPoint x="292" y="850" />
              <mxPoint x="170" y="850" />
              <mxPoint x="170" y="560" />
            </Array>
          </mxGeometry>
        </mxCell>
        <mxCell id="btgjlnelvWsudcuo9mZK-81" value="" style="ellipse;whiteSpace=wrap;html=1;aspect=fixed;" vertex="1" parent="1">
          <mxGeometry x="292.51" y="820" as="geometry" />
        </mxCell>
        <mxCell id="btgjlnelvWsudcuo9mZK-88" style="edgeStyle=orthogonalEdgeStyle;rounded=0;orthogonalLoop=1;jettySize=auto;html=1;" edge="1" parent="1">
          <mxGeometry relative="1" as="geometry">
            <mxPoint x="195" y="450" as="targetPoint" />
            <mxPoint x="292.51" y="820" as="sourcePoint" />
            <Array as="points">
              <mxPoint x="293" y="870" />
              <mxPoint x="150" y="870" />
              <mxPoint x="150" y="450" />
            </Array>
          </mxGeometry>
        </mxCell>
        <mxCell id="btgjlnelvWsudcuo9mZK-92" style="edgeStyle=orthogonalEdgeStyle;rounded=0;orthogonalLoop=1;jettySize=auto;html=1;entryX=0.5;entryY=0;entryDx=0;entryDy=0;" edge="1" parent="1" source="btgjlnelvWsudcuo9mZK-89" target="btgjlnelvWsudcuo9mZK-90">
          <mxGeometry relative="1" as="geometry" />
        </mxCell>
        <mxCell id="btgjlnelvWsudcuo9mZK-89" value="Desde i = 0&lt;br&gt;Mientras i &amp;lt; NUM_PALABRAS&amp;nbsp;&lt;br&gt;Incremento i++" style="shape=hexagon;perimeter=hexagonPerimeter2;whiteSpace=wrap;html=1;fixedSize=1;" vertex="1" parent="1">
          <mxGeometry x="196.13" y="920" width="192.75" height="80" as="geometry" />
        </mxCell>
        <mxCell id="btgjlnelvWsudcuo9mZK-93" style="edgeStyle=orthogonalEdgeStyle;rounded=0;orthogonalLoop=1;jettySize=auto;html=1;entryX=0;entryY=0.5;entryDx=0;entryDy=0;" edge="1" parent="1" source="btgjlnelvWsudcuo9mZK-90" target="btgjlnelvWsudcuo9mZK-89">
          <mxGeometry relative="1" as="geometry">
            <Array as="points">
              <mxPoint x="293" y="1090" />
              <mxPoint x="176" y="1090" />
              <mxPoint x="176" y="960" />
            </Array>
          </mxGeometry>
        </mxCell>
        <mxCell id="btgjlnelvWsudcuo9mZK-90" value="&quot;%s\n&quot;, palabras[i]" style="shape=document;whiteSpace=wrap;html=1;boundedLbl=1;" vertex="1" parent="1">
          <mxGeometry x="232.51" y="1020" width="120" height="60" as="geometry" />
        </mxCell>
      </root>
    </mxGraphModel>
  </diagram>
</mxfile>
